# xmcd
# 
# Track frame offsets:
#     150
#     22772
#     45095
# 
# Disc length: 1110
# 
# Revision: 2
# Processed by: cddbd v1.5.2PL0 Copyright (c) Steve Scherf et al.
# Submitted via: fre:ac v1.0.31
# 
DISCID=0f045403
DTITLE=岡村靖幸 - Peach X'mas
DYEAR=1995
DGENRE=Pop
TTITLE0=Peach X'mas (1995 mix)
TTITLE1=Peach X'mas (Lowkyu Okamura Mix)
TTITLE2=Peach X'mas (Takkyu Ishino Remix)
EXTD=
EXTT0=
EXTT1=
EXTT2=
PLAYORDER=
